<svg xmlns="http://www.w3.org/2000/svg" xmlns:xlink="http://www.w3.org/1999/xlink" viewBox="0,0,256,256" width="200px" height="200px" fill-rule="nonzero"><defs><linearGradient x1="18.306" y1="6.964" x2="36.788" y2="11.098" gradientUnits="userSpaceOnUse" id="color-1"><stop offset="0" stop-color="#0a3aa3"></stop><stop offset="0.999" stop-color="#000000"></stop></linearGradient><linearGradient x1="24.928" y1="11.897" x2="13.912" y2="26.647" gradientUnits="userSpaceOnUse" id="color-2"><stop offset="0" stop-color="#0a3aa3"></stop><stop offset="0.999" stop-color="#000000"></stop></linearGradient></defs><g fill="none" fill-rule="nonzero" stroke="none" stroke-width="1" stroke-linecap="butt" stroke-linejoin="miter" stroke-miterlimit="10" stroke-dasharray="" stroke-dashoffset="0" font-family="none" font-weight="none" font-size="none" text-anchor="none" style="mix-blend-mode: normal"><g transform="scale(6.4,6.4)"><path d="M31.303,24c-1.649,4.658 -6.08,8 -11.303,8c-6.627,0 -12,-5.373 -12,-12c0,-6.627 5.373,-12 12,-12c3.084,0 5.763,0.96 7.888,2.872l0.112,0.128l-0.633,-5.192h0.005c-2.208,-1.149 -4.711,-1.808 -7.372,-1.808c-8.837,0 -16,7.163 -16,16c0,8.837 7.163,16 16,16c7.453,0 13.697,-5.103 15.476,-12z" fill="#0a3aa3"></path><path d="M13.856,9.706c1.799,-1.076 3.895,-1.706 6.144,-1.706c3.084,0 5.763,1.008 7.888,2.92l0.112,0.08l-0.633,-5.192h0.005c-2.208,-1.149 -4.711,-1.808 -7.372,-1.808c-2.363,0 -4.599,0.526 -6.617,1.445z" fill="url(#color-1)"></path><path d="M28,11l-7.819,10.596l-2.325,-3.572l9.511,-12.215z" fill="url(#color-2)"></path><path d="M34,22h-14.037l-2.107,-4h16.144l2,2z" fill="#0a3aa3"></path></g></g></svg>
